<svg id="users" xmlns="http://www.w3.org/2000/svg" version="1.1" xmlns:xlink="http://www.w3.org/1999/xlink" width="512" height="512" x="0" y="0" viewBox="0 0 24 24" style="enable-background:new 0 0 512 512" xml:space="preserve" class=""><g><path d="M12 16a4 4 0 1 1 4-4 4 4 0 0 1-4 4Zm0-6a2 2 0 1 0 2 2 2 2 0 0 0-2-2Zm6 13a6 6 0 0 0-12 0 1 1 0 0 0 2 0 4 4 0 0 1 8 0 1 1 0 0 0 2 0Zm0-15a4 4 0 1 1 4-4 4 4 0 0 1-4 4Zm0-6a2 2 0 1 0 2 2 2 2 0 0 0-2-2Zm6 13a6.006 6.006 0 0 0-6-6 1 1 0 0 0 0 2 4 4 0 0 1 4 4 1 1 0 0 0 2 0ZM6 8a4 4 0 1 1 4-4 4 4 0 0 1-4 4Zm0-6a2 2 0 1 0 2 2 2 2 0 0 0-2-2ZM2 15a4 4 0 0 1 4-4 1 1 0 0 0 0-2 6.006 6.006 0 0 0-6 6 1 1 0 0 0 2 0Z" fill="#000000" opacity="1" data-original="#000000" class=""></path></g></svg>